<?xml version="1.0" encoding="utf-8"?>
<!-- Generator: Adobe Illustrator 25.4.1, SVG Export Plug-In . SVG Version: 6.00 Build 0)  -->
<svg version="1.1" xmlns="http://www.w3.org/2000/svg" xmlns:xlink="http://www.w3.org/1999/xlink" x="0px" y="0px"
	 viewBox="0 0 174.32 161.41" style="enable-background:new 0 0 174.32 161.41;" xml:space="preserve">
<style type="text/css">
	.st0{fill:#C09072;}
</style>
<g id="Capa_2">
</g>
<g id="Capa_1">
	<g>
		<path class="st0" d="M20.32,99.18c-2.23-5.16-3.45-10.4-4.24-15.75c-0.34-2.27,0.46-3.81,2.15-4.65c0.11-0.05,0.22-0.14,0.33-0.14
			c1.71-0.06,2.03-1.08,2.1-2.59c0.08-1.74,0.35-3.51,1.97-4.69c0.29-0.21,0.35-0.78,0.44-1.2c0.28-1.24,0.9-1.99,2.23-2.33
			c4.03-1.03,8.01-2.2,12.02-3.3c1.49-0.41,1.91-0.25,2.6,1.12c0.38,0.76,0.84,0.99,1.7,0.94c0.53-0.03,1.23,0.29,1.59,0.69
			c0.81,0.88,1.45,1.9,2.16,2.87c0.5,0.68,1.04,0.97,1.93,0.61c1.07-0.42,2.21-0.66,3.36-0.98c-0.01-0.2,0.01-0.35-0.03-0.5
			c-0.61-2.52-0.62-2.55,1.71-3.49c0.68-0.27,0.76-0.64,0.64-1.3c-0.47-2.48-0.45-2.49,2-3.17c0.31-0.09,0.62-0.17,0.93-0.24
			c2.1-0.5,2.41-0.37,3.1,1.64c0.25,0.74,0.57,1.1,1.37,0.87c0.27-0.08,0.57-0.03,0.83-0.12c1.04-0.33,1.56,0.08,1.78,1.1
			c0.13,0.62,0.38,1.21,0.63,1.98c1.1-0.29,2.18-0.54,3.22-0.88c0.22-0.07,0.41-0.47,0.46-0.75c1.34-7.23,5.33-13.3,8.61-19.68
			c0.59-1.14,1.48-1.66,2.66-1.97c6.13-1.65,12.26-3.33,18.38-5.02c1.35-0.37,2.61-0.26,3.79,0.5c3.93,2.52,7.97,4.9,11.75,7.65
			c1.66,1.21,2.84,3.12,4.15,4.78c0.61,0.77,1.16,1,2.12,0.66c1.23-0.44,2.53-0.7,3.94-1.07c-0.17-0.91-0.38-1.83-0.5-2.76
			c-0.2-1.63,0.04-2.19,1.57-2.64c4.14-1.21,8.3-2.35,12.48-3.4c1.68-0.42,2.21,0.05,2.68,1.7c0.09,0.31,0.17,0.62,0.28,0.92
			c0.55,1.58,0.76,1.67,2.32,1.17c1.88-0.6,3.75-1.24,5.63,0.03c1,0.68,1.68,1.53,2,2.73c1.16,4.32,2.38,8.63,3.55,12.94
			c0.3,1.12,0.6,1.76,2.1,1.47c2.66-0.52,4.95,1.04,5.55,3.42c0.63,2.48-0.71,5.13-3.26,6.09c-1.05,0.4-1.29,0.82-1,1.89
			c3.35,12.38,6.65,24.78,9.98,37.16c0.47,1.73,1.13,3.42,1.51,5.17c0.58,2.66-0.28,4.28-2.9,5.1c-4.27,1.34-8.6,2.48-12.9,3.69
			c-6.54,1.84-13.09,3.62-19.61,5.52c-1.26,0.37-2.41,1.17-3.56,1.84c-2.06,1.21-4.02,2.62-6.15,3.7
			c-5.61,2.83-11.53,4.65-17.83,5.28c-3.41,0.34-6.77,0.31-10.16-0.07c-1.09-0.12-2.25-0.02-3.32,0.25
			c-8.6,2.18-17.17,4.46-25.77,6.63c-8.76,2.2-17.53,4.34-26.31,6.44c-2.5,0.6-4.62-0.7-5.32-3.24c-1.07-3.85-1.92-7.76-2.96-11.61
			c-2.61-9.6-5.26-19.19-7.92-28.78c-0.55-1.98-0.61-1.97-2.65-2.03c-2.28-0.07-3.82-1.23-4.46-3.33c-0.72-2.42-0.24-4.37,1.49-5.44
			C18.21,100,19.28,99.64,20.32,99.18z M63.97,99.61c0.31,11.69,3.72,21.06,10.79,28.67c7.7,8.28,17.2,12.81,28.68,11.7
			c9.52-0.91,18.15-4.47,25.53-10.63c5.79-4.83,9.61-10.98,11.22-18.4c1.45-6.67,0.99-13.27-0.96-19.78
			c-2.63-8.78-6.91-16.49-14.5-22.01c-6.39-4.65-13.4-7-21.38-6.1c-6.57,0.74-12.87,2.45-18.86,5.25
			c-5.55,2.59-10.08,6.4-13.51,11.53c-2.1,3.15-3.78,6.47-5.15,9.99C64.55,93.17,63.97,96.6,63.97,99.61z M66.63,68.48
			c-0.62,0.09-1.05,0.13-1.46,0.23c-5.35,1.31-10.71,2.59-16.05,3.97c-9.08,2.36-18.15,4.76-27.21,7.2
			c-2.94,0.79-3.72,2.05-3.43,5.1c0.05,0.52,0.11,1.04,0.24,1.54c0.94,3.47,1.88,6.94,2.87,10.39c0.53,1.84,0.66,1.87,2.56,1.36
			c6.13-1.64,12.26-3.29,18.39-4.93c5.74-1.54,11.49-3.09,17.24-4.61c1.57-0.42,2.75-1.15,3.12-2.9c0.95-4.53,1.97-9.05,2.96-13.57
			C66.11,71.04,66.34,69.85,66.63,68.48z M65.58,83.07c0.1,0.08,0.2,0.15,0.3,0.23c5.82-10.83,14.99-17.36,26.56-20.57
			c11.54-3.2,22.81-2.8,33.37,3.73c-0.11-0.37-0.23-0.62-0.4-0.83c-4.27-5.48-8.56-10.95-12.81-16.45c-0.6-0.77-1.23-0.85-2.09-0.64
			c-8.6,2.16-17.21,4.26-25.8,6.47c-4.25,1.1-8.46,2.37-12.66,3.64c-0.49,0.15-1.09,0.73-1.2,1.2c-1.07,4.63-2.01,9.29-3.04,13.93
			C67.1,76.88,66.32,79.97,65.58,83.07z M119.13,53.97c0.95,1.18,1.78,2.15,2.53,3.17c2.74,3.69,5.45,7.4,8.17,11.1
			c0.36,0.49,0.67,0.95,1.45,0.75c6.19-1.59,12.38-3.15,18.58-4.7c0.83-0.21,1.06-0.58,0.83-1.45c-1.15-4.24-2.2-8.51-3.35-12.75
			c-0.67-2.46-1.73-3.02-4.17-2.39c-3.48,0.91-6.96,1.81-10.43,2.71C128.26,51.59,123.78,52.76,119.13,53.97z M86.43,140.49
			c0-0.13,0.01-0.27,0.01-0.4c-1.14-0.65-2.35-1.21-3.4-1.97c-1.91-1.38-3.8-1.42-6.06-0.81c-9.02,2.45-18.09,4.72-27.14,7.03
			c-4.45,1.13-8.92,2.19-13.38,3.29c-0.66,0.16-1.34,0.28-1.41,1.2c-0.16,2.36,1.72,4.14,4.05,3.78c0.32-0.05,0.63-0.12,0.94-0.2
			c3.6-0.94,7.19-1.88,10.78-2.81c9.01-2.34,18.01-4.68,27.02-7C80.7,141.87,83.57,141.2,86.43,140.49z M106.59,44.68
			c-2.3-1.43-4.35-2.81-6.5-3.99c-0.78-0.43-1.87-0.61-2.75-0.48c-6.3,0.91-12.36,2.8-18.37,4.84c-0.38,0.13-0.7,0.61-0.93,1
			c-1.27,2.22-2.49,4.46-3.74,6.69c-0.25,0.45-0.52,0.9-0.77,1.36c0.07,0.09,0.14,0.18,0.21,0.26
			C84.58,51.16,95.43,47.96,106.59,44.68z M134.47,127.75c1.59-0.55,3.07-1.12,4.59-1.56c8.06-2.3,16.13-4.56,24.19-6.86
			c2.11-0.6,2.44-1.21,2.01-3.41c-0.11-0.58-0.28-1.14-0.42-1.72c-0.23,0-0.35-0.03-0.46,0c-8.22,2.32-16.44,4.65-24.65,6.99
			c-0.26,0.07-0.55,0.21-0.7,0.41C137.52,123.6,136.04,125.62,134.47,127.75z M54.45,127.17c-0.08-0.65-0.12-1.45-0.29-2.23
			c-0.95-4.4-3.21-8.14-5.96-11.62c-0.74-0.94-1.71-1.4-2.84-1.06c-1.15,0.34-1.16,1.48-1.13,2.41c0.11,2.95,0.21,5.91,0.53,8.84
			c0.26,2.33,0.75,4.66,2.13,6.67c1.15,1.67,2.83,2.48,4.36,2.11c1.57-0.38,2.83-1.95,3.09-3.89
			C54.4,128.04,54.41,127.68,54.45,127.17z M72.16,56.58c12.62-2.9,25.09-6.42,37.86-9.84C108.42,46.05,73.78,55.05,72.16,56.58z
			 M38.49,67.09c-0.28-0.62-0.11-1.49-1.15-1.19c-3.99,1.13-7.99,2.25-11.97,3.42c-0.38,0.11-0.65,0.56-0.98,0.85
			c0.42,0.07,0.88,0.27,1.26,0.18C29.87,69.31,34.08,68.22,38.49,67.09z M52.58,69.32c2.3-0.65,4.5-1.24,6.67-1.89
			c1.6-0.48,1.64-0.66,0.69-2.38c-2.59,0.73-5.21,1.48-7.85,2.22c0.03,0.31,0.03,0.47,0.07,0.62C52.28,68.3,52.41,68.72,52.58,69.32
			z M43.35,100.31c-0.05-0.1-0.11-0.21-0.16-0.31c-0.91,0.48-1.98,0.79-2.68,1.48c-0.98,0.96-0.68,3.48,0.31,4.57
			c1.03,1.13,2.41,1.29,3.93,0.47c1.38-0.74,2.74-2.99,2.49-4.11C47,101.39,45.09,100.35,43.35,100.31z M155.54,107.69
			c-1.45-0.01-2.32,0.77-2.36,2.12c-0.04,1.14,1.15,2.39,2.24,2.36c0.91-0.03,2.28-1.47,2.31-2.44
			C157.77,108.62,156.78,107.7,155.54,107.69z M153.59,65.36c1.85-0.37,3.72-0.46,4.27,1.54c0.56,2.03-1.29,2.76-2.8,3.59
			c1.31,0.49,3.21-0.67,3.93-2.24c0.53-1.16-0.3-3-1.66-3.7C156.1,63.92,154.27,64.2,153.59,65.36z M20.16,101.82
			c-0.01-0.12-0.02-0.23-0.03-0.35c-0.5,0-1.06-0.14-1.5,0.03c-1.14,0.45-1.85,2.23-1.59,3.71c0.22,1.26,1.48,2.39,2.74,2.47
			c0.88,0.05,1.46-0.22,1.78-0.83c-2.38,0.04-3.17-0.35-3.56-1.73C17.63,103.74,18.08,103.05,20.16,101.82z M38.81,72.9
			c-0.14-0.17-0.28-0.34-0.42-0.51c-0.32-1.03-0.6-2.06-0.98-3.06c-0.07-0.18-0.65-0.34-0.86-0.24c-0.29,0.14-0.68,0.6-0.62,0.82
			c0.26,1,0.62,1.97,1.04,2.91c0.09,0.19,0.58,0.27,0.89,0.28C38.17,73.11,38.49,72.97,38.81,72.9z M54.39,65.16
			c1.13-0.32,2.17-0.61,3.31-0.92c-0.4-0.96-0.41-1.96-1.76-1.65C54.16,63,54.12,62.99,54.39,65.16z M34.53,69.76
			c-1.58,0.12-1.66,0.22-1.21,1.49c0.21,0.6,0.48,1.18,0.71,1.78c0.32,0.85,0.83,0.98,1.61,0.41
			C35.28,72.22,34.91,71.01,34.53,69.76z M38.86,68.75c0.48,1.25,0.95,2.49,1.46,3.8c0.47-0.14,0.87-0.26,1.28-0.38
			c-0.36-1.02-0.75-1.9-0.98-2.82C40.35,68.36,39.87,68.13,38.86,68.75z M31.43,74.83c0.15,0.04,0.3,0.09,0.44,0.13
			c0.21-0.39,0.62-0.8,0.58-1.15c-0.1-0.9-0.36-1.8-0.65-2.66c-0.08-0.25-0.48-0.4-0.73-0.59c-0.17,0.32-0.52,0.67-0.46,0.95
			C30.81,72.62,31.14,73.72,31.43,74.83z M25.35,72.27c0.31,1.18,0.57,2.3,0.92,3.39c0.06,0.21,0.43,0.32,0.66,0.47
			c0.14-0.26,0.43-0.53,0.4-0.77c-0.11-1.14-0.3-2.27-0.49-3.51C26.29,72.01,25.89,72.12,25.35,72.27z M123.39,47.07
			c0.24,1.05,0.37,1.76,0.59,2.44c0.08,0.25,0.38,0.59,0.6,0.6c0.25,0.01,0.73-0.28,0.74-0.46c0.04-0.81,0.05-1.65-0.17-2.41
			C125.1,47.06,124.15,47.13,123.39,47.07z M64.34,132.93c0.11,0.07,0.23,0.13,0.34,0.2c1.09-1.74,2.17-3.48,3.26-5.23
			C66.72,128.05,64.33,131.82,64.34,132.93z M140.78,69.72c-0.76,2.09-2.05,4.01-2.17,6.32C139.76,74.08,141.07,72.17,140.78,69.72z
			 M133.9,44.24c0.26,0.91,0.46,1.75,0.76,2.55c0.08,0.22,0.55,0.51,0.69,0.45c0.26-0.12,0.59-0.5,0.57-0.73
			c-0.1-0.91-0.33-1.81-0.52-2.8C134.84,43.91,134.47,44.04,133.9,44.24z M145.87,96.8c1.42-0.81,2.65-2.83,2.45-4.03
			C147.15,93.28,145.74,95.6,145.87,96.8z M29.13,71.15c-0.44,0.28-0.63,0.35-0.62,0.39c0.16,1.25,0.34,2.5,0.55,3.75
			c0.01,0.07,0.39,0.17,0.49,0.1c0.17-0.12,0.36-0.38,0.34-0.55C29.67,73.67,29.41,72.5,29.13,71.15z M154.52,81.84
			c-1.34,0.96-2.04,3.25-1.54,4.58C153.81,85.04,154.67,83.75,154.52,81.84z M156.56,95.19c-0.58,1.61-1.13,3.12-1.67,4.63
			C156.92,98.28,157.59,96.31,156.56,95.19z M128.33,48.38c-0.21-0.73-0.32-1.33-0.56-1.87c-0.09-0.21-0.51-0.46-0.68-0.4
			c-0.27,0.09-0.65,0.45-0.63,0.67c0.05,0.63,0.21,1.26,0.46,1.84c0.1,0.23,0.57,0.47,0.82,0.42
			C127.98,48.98,128.16,48.58,128.33,48.38z M154.85,69.54c0.62-0.69,1.1-1.04,1.3-1.51c0.15-0.35,0.09-1.01-0.15-1.26
			c-0.27-0.27-0.89-0.37-1.29-0.26c-0.21,0.06-0.36,0.72-0.34,1.1C154.4,68.13,154.62,68.64,154.85,69.54z M133.17,47.36
			c-0.14-0.87-0.2-1.51-0.37-2.11c-0.07-0.26-0.4-0.44-0.62-0.65c-0.2,0.26-0.58,0.52-0.57,0.77c0.04,0.66,0.21,1.33,0.42,1.96
			c0.09,0.28,0.41,0.48,0.62,0.72C132.86,47.77,133.06,47.5,133.17,47.36z M21.5,105.04c0.01-1.36-0.31-1.9-1-1.74
			c-0.4,0.09-0.92,0.61-0.99,1c-0.13,0.72,0.28,1.38,1.13,1.32C20.99,105.59,21.32,105.16,21.5,105.04z M158.15,105.42
			c1.94-1.08,2.62-2.85,1.73-4.49C159.29,102.46,158.78,103.79,158.15,105.42z M33.98,127.08c-1.61,0.63-2.62,3.02-1.99,4.63
			C32.72,130.02,33.35,128.55,33.98,127.08z M34.32,104.12c-1.23-0.26-2.26,2.02-2.08,4.95C32.92,107.45,33.61,105.82,34.32,104.12z
			 M130.75,47.89c-0.14-0.79-0.19-1.39-0.36-1.95c-0.08-0.26-0.42-0.44-0.64-0.66c-0.2,0.27-0.56,0.54-0.55,0.8
			c0.02,0.62,0.14,1.26,0.35,1.84c0.11,0.3,0.49,0.51,0.74,0.76C130.47,48.36,130.65,48.06,130.75,47.89z M153.26,114.11
			c-0.1-0.09-0.44-0.47-0.49-0.43c-0.77,0.52-1.5,1.08-2.21,1.67c-0.05,0.04,0.19,0.44,0.3,0.66c0.01,0.03,0.07,0.04,0.1,0.05
			C151.57,116.22,153.28,114.92,153.26,114.11z M151.91,74.64c0.14,0.14,0.28,0.27,0.41,0.41c0.52-0.28,1.34-0.46,1.48-0.88
			c0.19-0.55-0.15-1.28-0.26-1.93c-0.16-0.01-0.31-0.02-0.47-0.03C152.69,73.01,152.3,73.82,151.91,74.64z M37.01,143.71
			c0.11,0.06,0.23,0.12,0.34,0.18c0.65-1.1,1.3-2.2,2.01-3.41C38.08,140.34,37.11,141.9,37.01,143.71z M24.2,72.51
			c-0.28,0.2-0.56,0.3-0.56,0.41c-0.02,1.19-0.01,2.38,0.05,3.57c0.01,0.14,0.32,0.26,0.49,0.39c0.13-0.21,0.39-0.43,0.38-0.63
			C24.48,75.06,24.34,73.88,24.2,72.51z M58.36,113.24c-0.18-0.1-0.36-0.21-0.54-0.31c-0.85,1.55-1.71,3.1-2.56,4.65
			c0.17,0.09,0.33,0.19,0.5,0.28C56.63,116.32,57.49,114.78,58.36,113.24z M72.26,133.7c-1.8,0.49-2.76,1.92-2.19,3.21
			C70.88,135.74,71.57,134.72,72.26,133.7z M38.61,115.17c-0.15-0.04-0.29-0.08-0.44-0.12c-0.87,1.04-1.23,2.67-0.6,3.74
			C37.96,117.42,38.28,116.29,38.61,115.17z M58.39,100.89c0.12,0.04,0.25,0.09,0.37,0.13c0.62-1.21,1.59-2.33,0.73-3.95
			C59.12,98.34,58.76,99.61,58.39,100.89z M47.33,138.29c-0.14-0.06-0.28-0.13-0.43-0.19c-0.42,0.61-0.88,1.19-1.22,1.83
			c-0.12,0.23,0.05,0.62,0.09,0.94c0.31-0.16,0.8-0.24,0.91-0.49C46.98,139.73,47.12,138.99,47.33,138.29z M32.13,134.28
			c1.5-0.93,1.69-2.17,1.91-3.39C33.11,131.72,32.3,132.62,32.13,134.28z M43.01,71.74c0.57-1.2-0.27-3-1.58-3.77
			C42,69.33,42.51,70.53,43.01,71.74z M27.36,115.87c0.14,0.06,0.28,0.12,0.42,0.19c1.56-1,1.64-1.21,0.81-2.79
			C28.11,114.28,27.74,115.07,27.36,115.87z M65.91,135.1c0.11,0.04,0.21,0.09,0.32,0.13c0.46-0.95,0.93-1.91,1.5-3.09
			C66.29,132.55,65.66,133.8,65.91,135.1z M35.32,100.77c1.14-0.68,1.92-1.33,2.2-2.79C36.21,98.66,35.45,99.33,35.32,100.77z
			 M148.56,70.17c1.27-1.01,1.7-2.38,1.04-3.66C149.28,67.64,148.95,68.77,148.56,70.17z M59.37,91.29
			c-2.15,0.13-1.47,1.82-2.1,2.65c0.09,0.06,0.18,0.12,0.27,0.17C58.1,93.24,58.67,92.36,59.37,91.29z M60.25,138.05
			c-0.15-0.07-0.31-0.15-0.46-0.22c-0.32,0.64-0.64,1.29-0.97,1.93c0.23,0.07,0.5,0.25,0.68,0.19
			C60.45,139.6,60.47,138.86,60.25,138.05z M147.19,89.6c-0.18-0.13-0.36-0.26-0.53-0.39c-0.55,0.84-1.09,1.69-1.64,2.53
			c0.17,0.11,0.34,0.23,0.51,0.34C146.08,91.26,146.64,90.43,147.19,89.6z M66.71,121.75c-0.5-0.35-0.84-0.68-0.94-0.63
			c-0.42,0.26-0.78,0.63-1.16,0.96c0.19,0.21,0.47,0.63,0.55,0.6C65.62,122.49,66.03,122.18,66.71,121.75z M155.61,84.35
			c-0.18-0.09-0.36-0.18-0.53-0.27c-0.46,0.93-0.93,1.86-1.39,2.78c0.18,0.09,0.36,0.18,0.53,0.27
			C154.68,86.21,155.14,85.28,155.61,84.35z M145.02,109.47c-0.61,1.08-1.23,1.81-0.71,3.02
			C145.23,111.64,145.36,110.8,145.02,109.47z M47.09,97.5c0.44-1.07,0.77-1.87,1.09-2.66C46.81,95.45,46.47,96.29,47.09,97.5z
			 M32.06,119.9c-0.2-0.06-0.4-0.12-0.6-0.18c-0.28,0.8-0.56,1.61-0.85,2.41c0.21,0.07,0.42,0.15,0.64,0.22
			C31.52,121.53,31.79,120.71,32.06,119.9z M38.84,120.18c0.2,0.11,0.4,0.22,0.6,0.33c0.39-0.77,0.79-1.55,1.18-2.32
			c-0.15-0.08-0.31-0.17-0.46-0.25C39.72,118.68,39.28,119.43,38.84,120.18z M144.52,117.51c1.36,0.15,2.88-0.52,3.27-1.59
			C146.62,116.49,145.59,116.99,144.52,117.51z M62.51,120.29c-0.12-0.06-0.24-0.12-0.36-0.19c-0.3,0.32-0.7,0.6-0.86,0.99
			c-0.11,0.28,0.1,0.69,0.16,1.05c0.27-0.21,0.64-0.38,0.78-0.65C62.43,121.14,62.43,120.7,62.51,120.29z M25.66,100.61
			c-0.15-0.03-0.29-0.07-0.44-0.1c-0.21,0.81-0.42,1.62-0.63,2.43c0.13,0.03,0.25,0.07,0.38,0.1
			C25.26,102.26,26.2,101.67,25.66,100.61z M157.09,93.92c0.18,0.08,0.35,0.16,0.53,0.25c0.39-0.87,0.79-1.74,1.18-2.61
			c-0.15-0.07-0.3-0.14-0.45-0.21C157.92,92.21,157.5,93.06,157.09,93.92z M141.58,76.29c0.51-1.13,0.89-1.96,1.26-2.79
			C141.41,73.86,141.23,74.78,141.58,76.29z M137.44,69.7c-0.44-0.27-0.75-0.58-0.87-0.51c-0.32,0.16-0.63,0.44-0.8,0.76
			c-0.05,0.1,0.47,0.67,0.55,0.64C136.66,70.42,136.94,70.12,137.44,69.7z M142.17,83.17c0.14,0.04,0.27,0.09,0.41,0.13
			c0.54-0.62,1.15-1.22,0.65-2.1c-0.13-0.04-0.27-0.08-0.4-0.12C142.61,81.78,142.39,82.48,142.17,83.17z M146.43,109.4
			c0.14,0.09,0.27,0.19,0.41,0.28c0.89-0.27,1.01-1.01,0.72-2.02C147.18,108.24,146.8,108.82,146.43,109.4z M34.49,144.74
			c0.16,0.06,0.32,0.12,0.48,0.18c0.31-0.84,0.63-1.68,0.94-2.53c-0.18-0.07-0.36-0.13-0.53-0.2
			C35.08,143.04,34.78,143.89,34.49,144.74z M150.58,80.63c0.15,0.08,0.3,0.15,0.46,0.23c0.66-0.47,1.17-1,0.41-2.06
			C151.16,79.41,150.87,80.02,150.58,80.63z M41.81,109.73c-0.22-0.06-0.44-0.12-0.67-0.18c-0.14,0.54-0.28,1.07-0.42,1.61
			c0.24,0,0.66,0.08,0.7,0C41.6,110.69,41.69,110.2,41.81,109.73z M29.79,117.37c-0.28-0.29-0.53-0.58-0.55-0.57
			c-0.37,0.3-0.73,0.62-1.05,0.97c-0.04,0.04,0.21,0.33,0.32,0.51C28.92,118,29.31,117.72,29.79,117.37z M159.65,113.65
			c-1.32-0.99-1.64-0.96-2.1,0.23C158.23,113.8,158.84,113.74,159.65,113.65z M43.44,143.21c-0.08-0.2-0.17-0.41-0.25-0.61
			c-0.48,0.19-0.96,0.39-1.44,0.58c0.11,0.21,0.29,0.61,0.33,0.6C42.54,143.62,42.99,143.41,43.44,143.21z"/>
		<path class="st0" d="M111.03,26.63c0.12-0.36,0.17-0.76,0.37-1.07c2.61-4.06,5.22-8.12,7.9-12.14c0.38-0.57,1.04-0.99,1.63-1.37
			c0.29-0.18,0.86-0.28,1.07-0.12c0.23,0.18,0.32,0.73,0.26,1.07c-0.1,0.54-0.27,1.12-0.6,1.54c-2.92,3.74-5.87,7.46-8.84,11.15
			c-0.38,0.47-0.98,0.77-1.47,1.14C111.23,26.77,111.13,26.7,111.03,26.63z"/>
		<path class="st0" d="M99.43,5.45c0.77,1.9,1.22,3.92,0.83,5.93c-0.7,3.6-1.65,7.15-2.53,10.71c-0.12,0.48-0.39,0.92-0.59,1.37
			c-0.11,0-0.22-0.01-0.33-0.01c-0.08-0.47-0.27-0.95-0.23-1.41c0.47-4.69,0.95-9.37,1.51-14.05c0.11-0.9,0.59-1.75,0.89-2.63
			C99.13,5.4,99.28,5.42,99.43,5.45z"/>
		<path class="st0" d="M82.73,24.16c-3.2-1.1-5.11-4.45-3.93-6.78C80.19,17.85,82.64,22.03,82.73,24.16z"/>
		<path class="st0" d="M98.77,136.73c-4.1-0.03-10.46-2.16-16.33-5.83c-3.85-2.4-6.57-5.91-8.96-9.68c-4.02-6.38-6-13.49-6.16-20.92
			c-0.17-7.89,3.18-14.69,8.36-20.51c6.25-7.03,14.39-10.65,23.41-12.66c9.51-2.12,17.71,0.88,25.18,6.36
			c2.27,1.66,4.04,4.08,5.77,6.36c6.16,8.11,8.49,17.32,7.54,27.41c-0.46,4.92-2.78,9.1-5.16,13.29c-1.94,3.41-4.96,5.71-7.88,8.1
			C117.9,134.08,110.14,136.39,98.77,136.73z M135.5,102.62c-0.33-9.19-2.76-17.54-9.37-24.41c-5.37-5.58-11.74-8.79-19.44-9.15
			c-10.14-0.48-19.09,2.75-26.56,9.6c-8.79,8.06-12.15,18.04-9.87,29.83c1.42,7.34,5.57,13.04,10.7,18.22
			c2.66,2.68,5.52,5.05,9.13,6.21c12.83,4.12,24.44,1.97,34.61-7.05C131.65,119.69,135.78,112.2,135.5,102.62z"/>
		<path class="st0" d="M52.04,86.29c-0.6-0.04-1.2-0.07-1.79-0.13c-2.53-0.27-4.18-2.02-4.43-4.7c-0.19-2,1.32-4.08,3.63-4.57
			c1.25-0.26,2.62-0.2,3.89-0.01c2.47,0.36,3.08,2.37,3.56,4.42c0.44,1.86-0.37,3.27-1.8,4.23c-0.84,0.56-1.97,0.67-2.98,0.98
			C52.09,86.43,52.06,86.36,52.04,86.29z M50.45,85.23c3.38-0.11,4.87-1.26,4.78-3.68c-0.09-2.45-1.67-4-4.01-3.94
			c-2.34,0.06-4.52,1.81-4.31,3.61C47.2,83.6,48.14,85.27,50.45,85.23z"/>
		<path class="st0" d="M110.54,52.78c1.46-0.03,2.45,0.92,2.45,2.34c0,1.05-1.13,2.09-2.33,2.14c-1.08,0.04-1.95-0.73-1.99-1.78
			C108.6,53.85,109.33,52.8,110.54,52.78z M109.29,54.77c0.53,0.5,0.98,1.16,1.2,1.09c0.47-0.15,0.82-0.68,1.21-1.05
			c-0.44-0.39-0.84-0.85-1.34-1.13C110.26,53.62,109.78,54.25,109.29,54.77z"/>
		<path class="st0" d="M50.64,124.55c1.14,0,2.21,1.47,2.17,2.98c-0.04,1.37-1.59,2.74-3.12,2.76c-1.04,0.01-2.4-1.65-2.37-2.89
			C47.36,125.96,49,124.55,50.64,124.55z M50.7,128.84c-0.91-0.82-1.66-1.49-2.42-2.18c-0.73,0.46-0.84,1.02-0.4,1.63
			C48.52,129.19,49.38,129.36,50.7,128.84z M49.02,125.84c-0.01,0.13-0.03,0.25-0.04,0.38c0.69,0.5,1.38,1,2.07,1.49
			c0.11-0.04,0.21-0.09,0.32-0.13c-0.11-0.53-0.06-1.37-0.37-1.53C50.45,125.76,49.69,125.88,49.02,125.84z"/>
		<path class="st0" d="M46.89,119.32c0.61-1.09,1.09-1.93,1.74-3.09c0.35,0.71,0.83,1.29,0.85,1.87c0.01,0.47-0.44,1.18-0.86,1.38
			C48.17,119.69,47.5,119.4,46.89,119.32z"/>
		<path class="st0" d="M43.48,101.21c1.65-0.01,2.59,0.64,2.63,1.82c0.05,1.64-1.23,2.93-2.96,2.96c-1.4,0.03-2.36-0.97-2.35-2.45
			C40.81,101.97,41.67,101.22,43.48,101.21z M44.53,103.84c0.02-1.15-0.59-1.87-1.33-1.89c-0.75-0.02-0.91,0.45-0.94,1.09
			c-0.04,0.97,0.53,1.43,1.37,1.43C43.98,104.47,44.33,103.98,44.53,103.84z"/>
		<path class="st0" d="M155.63,108.64c0.42,0.63,0.9,1.07,0.81,1.28c-0.22,0.52-0.68,0.94-1.05,1.4c-0.32-0.45-0.83-0.87-0.89-1.36
			C154.46,109.65,155.08,109.26,155.63,108.64z"/>
		<path class="st0" d="M103.87,76.91c12.73-0.34,20.58,9.15,22.88,19.39c1.29,5.7,0.97,11.28-1.63,16.61
			c-1.34,2.75-3.35,4.95-5.66,6.9c-8.9,7.5-18.65,7.86-28.79,3.1c-7.69-3.6-11.53-10.15-12.56-18.35
			c-1.34-10.69,5.38-25.21,21.71-27.32C101.15,77.06,102.52,77.02,103.87,76.91z M114.78,90.81c0.29,0.97,0.52,1.67,0.69,2.37
			c0.48,2,1.26,4,1.35,6.03c0.23,5.41-3.06,12.87-11.63,15.16c-2.28,0.61-4.59,1.08-6.87,1.69c-0.45,0.12-0.82,0.54-1.23,0.82
			c0.37,0.43,0.66,1.06,1.13,1.25c4.87,1.92,9.81,1.91,14.38-0.61c6.04-3.33,9.29-8.66,9.53-15.62c0.12-3.46-0.78-6.66-3.29-9.23
			C117.85,91.63,116.65,90.96,114.78,90.81z M84.45,98.2c0.12,0.01,0.24,0.01,0.36,0.02c0.25-0.38,0.5-0.76,0.76-1.14
			c0.67-0.99,1.17-2.17,2.05-2.91c1.78-1.52,3.75-2.81,5.65-4.17c0.52-0.37,1.09-0.66,1.78-1.07c-4.8-2.02-11.3,2.32-11.12,7.17
			C83.96,96.81,84.27,97.5,84.45,98.2z M88.74,110.38c0.73-3.79,1.43-7.38,2.11-10.95c-2.11,0.76-4.45,4.35-4.43,6.82
			C86.44,108.09,87.45,109.32,88.74,110.38z M101.71,87.73c-0.64-0.67-1.07-1.11-1.5-1.56c-0.29,0.44-0.83,0.9-0.8,1.33
			c0.03,0.5,0.54,0.97,0.85,1.45C100.66,88.61,101.07,88.26,101.71,87.73z M105.51,85.52c-0.43-0.49-0.66-0.74-0.88-0.99
			c-0.45,0.66-0.94,1.29-1.32,1.98c-0.07,0.13,0.31,0.5,0.48,0.76C104.32,86.73,104.86,86.19,105.51,85.52z M99.74,93.57
			c0.12,0.01,0.24,0.02,0.36,0.02c0.25-0.5,0.54-0.99,0.71-1.52c0.04-0.13-0.33-0.39-0.52-0.59c-0.31,0.41-0.7,0.79-0.9,1.25
			C99.31,92.92,99.61,93.28,99.74,93.57z"/>
		<path class="st0" d="M101.29,73.95c-1.17,0.29-2.33,0.68-3.52,0.85c-7.17,1-12.75,4.95-17.32,10.14
			c-3.18,3.61-4.83,8.27-5.27,13.16c-0.25,2.78-0.17,5.58-0.23,8.38c-0.02,0.78,0,1.56,0,2.34c-0.16,0.03-0.33,0.06-0.49,0.1
			c-0.31-0.93-0.78-1.84-0.9-2.8c-1.33-10.45,1.8-19.23,9.94-26.07c2.98-2.51,6.11-4.82,9.98-5.75c1.85-0.45,3.78-0.62,5.68-0.84
			c0.68-0.08,1.39,0.08,2.09,0.13C101.26,73.71,101.27,73.83,101.29,73.95z"/>
		<path class="st0" d="M95.66,129.6c-0.67,0-1.39,0.17-2-0.03c-5.24-1.68-9.82-4.39-13.22-8.82c-0.24-0.31-0.35-0.73-0.41-1.19
			c4.64,4.2,9.78,7.48,15.76,9.39C95.74,129.17,95.7,129.38,95.66,129.6z"/>
		<path class="st0" d="M53.84,81.54c-0.02,1.63-1.13,2.64-2.91,2.63c-1.15-0.01-2.51-1.53-2.49-2.79c0.02-1.23,1.84-2.91,3.1-2.88
			C52.77,78.53,53.85,79.97,53.84,81.54z M50.7,82.75c1.59,0.26,2.32-0.5,2.27-2.27C52.15,81.29,51.54,81.91,50.7,82.75z"/>
	</g>
</g>
</svg>
