<?xml version="1.0" encoding="utf-8"?>
<!-- Generator: Adobe Illustrator 25.4.1, SVG Export Plug-In . SVG Version: 6.00 Build 0)  -->
<svg version="1.1" id="Capa_1" xmlns="http://www.w3.org/2000/svg" xmlns:xlink="http://www.w3.org/1999/xlink" x="0px" y="0px"
	 viewBox="0 0 379.32 307.84" style="enable-background:new 0 0 379.32 307.84;" xml:space="preserve">
<style type="text/css">
	.st0{fill:#FFFFFF;}
	.st1{fill:#F9595F;}
</style>
<g>
	<path class="st0" d="M186.61,52.67c6.44-6.58,12.08-13.07,18.47-18.71c16.07-14.18,34.68-22.5,56.31-23.98
		c46.35-3.18,85.84,28.98,95.39,73.62c6.6,30.84-1.29,58.43-17.48,84.42c-15.51,24.9-35.64,45.74-57.44,65.04
		c-22.06,19.53-45.69,37.01-70.44,52.95c-16.23,10.45-32.77,10.48-48.96-0.08c-35.33-23.04-68.73-48.51-97.72-79.38
		c-16.52-17.59-30.85-36.71-40.86-58.91C5.86,107.7,15.04,60.84,47.17,32.09c14.89-13.32,32.55-20.64,52.56-22
		c34.72-2.36,61.55,12.49,83.34,38.34C184.25,49.82,185.4,51.21,186.61,52.67z"/>
</g>
<g>
	<path class="st1" d="M186.63,57.97c6.1-6.23,11.43-12.37,17.48-17.71c15.21-13.42,32.83-21.29,53.3-22.7
		c43.87-3.01,81.25,27.43,90.29,69.69c6.24,29.19-1.22,55.31-16.55,79.91c-14.68,23.57-33.74,43.29-54.37,61.56
		c-20.88,18.49-43.25,35.04-66.68,50.12c-15.36,9.89-31.02,9.92-46.35-0.08c-33.44-21.81-65.05-45.92-92.49-75.14
		c-15.64-16.65-29.2-34.75-38.68-55.76C15.54,110.06,24.23,65.7,54.64,38.49c14.09-12.61,30.81-19.54,49.75-20.82
		c32.87-2.23,58.26,11.83,78.89,36.29C184.39,55.27,185.48,56.59,186.63,57.97z"/>
</g>
</svg>
